HIERARCHY
ROOT Hips
{
	OFFSET 0.000000 88.474243 0.000000
	CHANNELS 6 Xposition Yposition Zposition Zrotation Yrotation Xrotation 
	JOINT Hips_Spine
	{
		OFFSET 0.000000 0.000000 0.000000
		CHANNELS 3 Zrotation Yrotation Xrotation
		JOINT Spine
		{
			OFFSET 0.005100 8.711998 -0.691000
			CHANNELS 3 Zrotation Yrotation Xrotation
			JOINT Spine1
			{
				OFFSET -0.009200 8.660301 -1.275000
				CHANNELS 3 Zrotation Yrotation Xrotation
				JOINT Spine2
				{
					OFFSET 0.006300 9.852501 -1.857000
					CHANNELS 3 Zrotation Yrotation Xrotation
					JOINT Spine2_Neck
					{
						OFFSET 0.000000 0.000000 0.000000
						CHANNELS 3 Zrotation Yrotation Xrotation
						JOINT Neck
						{
							OFFSET 0.016300 11.420799 -0.263300
							CHANNELS 3 Zrotation Yrotation Xrotation
							End Site #name: Head
							{
								OFFSET -0.019200 9.262405 2.362500
							}
						}
					}
					JOINT Spine2_LeftShoulder
					{
						OFFSET 0.000000 0.000000 0.000000
						CHANNELS 3 Zrotation Yrotation Xrotation
						JOINT LeftShoulder
						{
							OFFSET 5.616900 6.732201 -0.345700
							CHANNELS 3 Zrotation Yrotation Xrotation
							JOINT LeftArm
							{
								OFFSET 10.664888 -0.183372 -2.440700
								CHANNELS 3 Zrotation Yrotation Xrotation
								JOINT LeftForeArm
								{
									OFFSET 27.459126 0.000000 0.000000
									CHANNELS 3 Zrotation Yrotation Xrotation
									End Site #name: LeftHand
									{
										OFFSET 21.306858 0.000000 0.000000
									}
								}
							}
						}
					}
					JOINT Spine2_RightShoulder
					{
						OFFSET 0.000000 0.000000 0.000000
						CHANNELS 3 Zrotation Yrotation Xrotation
						JOINT RightShoulder
						{
							OFFSET -5.580300 6.737503 -0.344400
							CHANNELS 3 Zrotation Yrotation Xrotation
							JOINT RightArm
							{
								OFFSET -10.679335 -0.188484 -2.383900
								CHANNELS 3 Zrotation Yrotation Xrotation
								JOINT RightForeArm
								{
									OFFSET -27.503529 0.000000 0.000000
									CHANNELS 3 Zrotation Yrotation Xrotation
									End Site #name: RightHand
									{
										OFFSET -21.306808 0.000000 0.000000
									}
								}
							}
						}
					}
				}
			}
		}
	}
	JOINT Hips_LeftUpLeg
	{
		OFFSET 0.000000 0.000000 0.000000
		CHANNELS 3 Zrotation Yrotation Xrotation
		JOINT LeftUpLeg
		{
			OFFSET 6.857700 -6.739601 0.312100
			CHANNELS 3 Zrotation Yrotation Xrotation
			JOINT LeftLeg
			{
				OFFSET -0.367590 -34.731552 -4.572400
				CHANNELS 3 Zrotation Yrotation Xrotation
				End Site #name: LeftFoot
				{
					OFFSET 0.367590 -34.656704 -6.067400
				}
			}
		}
	}
	JOINT Hips_RightUpLeg
	{
		OFFSET 0.000000 0.000000 0.000000
		CHANNELS 3 Zrotation Yrotation Xrotation
		JOINT RightUpLeg
		{
			OFFSET -6.876100 -6.733299 0.301000
			CHANNELS 3 Zrotation Yrotation Xrotation
			JOINT RightLeg
			{
				OFFSET 0.347353 -34.795158 -4.515900
				CHANNELS 3 Zrotation Yrotation Xrotation
				End Site #name: RightFoot
				{
					OFFSET -0.347353 -34.589367 -6.070300
				}
			}
		}
	}
}
MOTION
Frames: 18
Frame Time: 0.041667
0.009053 0.077168 -0.116190 -4.345744 31.118717 -1.730692 0.000000 -0.000000 0.000000 1.516347 -0.975870 -0.183202 3.175755 1.684900 2.496688 0.000000 0.000000 0.000000 4.236952 1.027019 1.823188 -3.683689 -2.818224 -2.967197 2.360749 1.270906 1.555206 -5.273562 -13.691653 2.411545 -78.257723 2.457251 11.584542 0.624723 -35.372533 -0.747127 3.666577 0.605096 0.882661 8.359723 15.098135 5.692101 37.807324 50.210367 -16.487653 179.774915 51.596216 -177.272745 0.000000 -0.000000 0.000000 -3.677533 12.134047 -25.247326 -2.500131 -4.375506 17.499500 -0.000000 -0.000000 0.000000 5.539629 4.800366 -6.457184 2.249806 -9.263763 3.877511 
-0.331499 0.003914 -0.304975 -4.570115 24.748658 0.150614 0.000000 -0.000000 -0.000000 -0.412184 -1.801445 0.282540 4.570378 1.926943 2.188050 0.000000 0.000000 0.000000 4.273458 1.007722 2.777676 -3.584830 -3.384527 -1.785653 3.653176 0.828091 1.434563 -3.167516 -14.953665 1.532374 -81.657103 -0.377486 6.136770 -0.800702 -34.977806 -0.142280 4.041551 1.011367 1.891081 7.951048 14.921449 4.276857 37.111096 48.894699 -26.544580 178.432425 43.546218 -178.094083 0.000000 -0.000000 -0.000000 -2.864998 12.477183 -26.312036 -2.557871 -2.983743 16.525608 -0.000000 0.000000 0.000000 4.773437 4.362347 -6.637655 4.243878 -7.352144 2.681192 
-0.532724 -0.030552 -0.481310 -5.294559 22.593324 0.550856 -0.000000 -0.000000 -0.000000 -0.819652 -2.123958 1.435798 4.605435 1.780316 2.205368 0.000000 0.000000 0.000000 4.385840 0.463755 3.040467 -3.651808 -3.653216 -2.416934 3.563842 0.596892 2.722378 -1.688740 -14.978983 1.152708 -85.063521 -1.320830 2.014020 -1.283875 -35.157702 0.307436 3.922449 1.056668 2.063946 7.879317 15.625804 3.618014 38.960423 48.750679 -23.591235 178.331459 42.909425 -177.875312 0.000000 0.000000 -0.000000 -1.486042 13.312922 -26.299772 -2.678401 -2.075631 16.481125 -0.000000 0.000000 0.000000 5.345437 3.978086 -5.809365 4.765720 -7.431805 1.679106 
-0.634350 -0.054466 -0.616200 -5.770221 20.467536 0.464352 -0.000000 -0.000000 -0.000000 -0.648411 -2.003058 1.714686 4.379569 1.368136 2.331922 0.000000 0.000000 0.000000 4.239911 0.172165 3.017956 -3.285202 -3.575449 -2.315663 3.368718 0.396218 2.940471 -1.508333 -15.199103 0.963235 -87.777076 -1.836544 -0.513295 -1.510248 -31.369283 0.427898 3.722521 0.729701 2.229104 7.272470 15.430852 4.037302 37.872014 51.407396 -25.946177 178.391090 41.649791 -178.075132 0.000000 0.000000 -0.000000 -0.652356 13.724455 -26.407377 -2.468432 -1.795565 16.761668 -0.000000 0.000000 0.000000 5.884511 3.238946 -5.434417 4.278718 -7.397385 1.576063 
-0.654415 -0.055713 -0.725046 -6.161025 19.440994 0.299250 -0.000000 -0.000000 0.000000 -0.415703 -1.930557 1.506210 4.044668 1.239665 2.493534 0.000000 0.000000 0.000000 4.045074 0.035965 3.040784 -3.198812 -3.524378 -2.225340 3.192403 0.281261 3.043411 -1.510447 -15.275972 0.976290 -90.285159 -2.828808 -2.419956 -1.595873 -25.931328 0.468242 3.502736 0.543264 2.383991 6.779198 15.230417 4.304468 36.254223 53.893868 -28.218002 178.560750 40.825538 -178.272127 0.000000 0.000000 -0.000000 -0.126486 14.101088 -26.470406 -2.355867 -1.530439 16.859879 -0.000000 0.000000 0.000000 6.314558 2.664842 -5.152554 3.881367 -7.395412 1.507905 
-0.642505 -0.055375 -0.830132 -6.413127 19.449357 0.078593 -0.000000 -0.000000 0.000000 -0.201827 -1.847447 1.208498 3.810250 1.221212 2.642207 0.000000 0.000000 0.000000 3.891946 0.008680 3.118731 -3.252760 -3.530078 -2.030208 3.052700 0.272720 3.283596 -1.443881 -15.219602 1.053121 -91.687698 -3.513719 -2.919665 -1.604104 -21.487961 0.470629 3.363037 0.445309 2.458491 6.686399 15.090411 4.275863 35.482159 55.100685 -29.391783 178.630805 40.219865 -178.430405 0.000000 0.000000 -0.000000 0.015638 14.168675 -26.530872 -2.305078 -1.435936 16.794020 -0.000000 0.000000 0.000000 6.619876 2.404579 -4.922759 3.616673 -7.394301 1.408225 
-0.614019 -0.055916 -0.934264 -6.536312 19.978873 -0.014833 -0.000000 -0.000000 0.000000 -0.044270 -1.767907 1.079715 3.673169 1.262324 2.708869 0.000000 0.000000 0.000000 3.785444 0.064540 3.212353 -3.320713 -3.512507 -1.780110 2.948898 0.332031 3.493302 -1.529264 -14.977616 1.136131 -92.086990 -3.795869 -3.044598 -1.623071 -19.048574 0.494847 3.267919 0.470370 2.479696 6.674753 15.091291 4.179741 35.069110 55.790845 -29.813401 178.590349 39.207707 -178.585931 0.000000 0.000000 -0.000000 0.020472 14.111295 -26.604505 -2.300494 -1.423197 16.661706 -0.000000 0.000000 0.000000 6.796709 2.292811 -4.787688 3.469842 -7.353620 1.218785 
-0.577916 -0.058600 -1.037828 -6.593555 20.687339 -0.061556 -0.000000 -0.000000 0.000000 0.029525 -1.687156 1.023735 3.619640 1.350142 2.758306 0.000000 0.000000 0.000000 3.723996 0.150129 3.309664 -3.378304 -3.494565 -1.607388 2.887136 0.419749 3.639734 -1.673061 -14.683215 1.184203 -91.986532 -3.764683 -3.006565 -1.637607 -18.044073 0.512666 3.216433 0.559477 2.502177 6.649554 15.128852 4.050648 34.859148 56.364303 -29.767620 178.573141 39.203186 -178.629811 0.000000 0.000000 -0.000000 -0.035697 14.040283 -26.686332 -2.315168 -1.458572 16.535187 -0.000000 0.000000 0.000000 6.933092 2.291009 -4.732130 3.348101 -7.300908 1.104237 
-0.541795 -0.062325 -1.138639 -6.633760 21.318831 -0.097653 -0.000000 -0.000000 0.000000 0.012882 -1.644764 1.018410 3.614357 1.437843 2.808376 0.000000 0.000000 0.000000 3.703979 0.243069 3.424931 -3.444982 -3.466003 -1.514299 2.865815 0.522382 3.751952 -1.793160 -14.355885 1.197102 -91.728814 -3.397779 -2.968784 -1.654350 -17.904755 0.525613 3.207184 0.652786 2.533759 6.638273 15.196533 3.950184 34.815732 56.753667 -29.528094 178.578212 39.536882 -178.627300 0.000000 0.000000 -0.000000 -0.078655 13.991946 -26.747232 -2.336501 -1.495711 16.474033 -0.000000 0.000000 0.000000 7.035115 2.314867 -4.706028 3.257199 -7.253082 1.069818 
-0.508133 -0.065622 -1.236511 -6.669872 21.758376 -0.144706 -0.000000 -0.000000 0.000000 -0.033405 -1.626082 1.040120 3.626302 1.514818 2.846724 0.000000 0.000000 0.000000 3.706897 0.318973 3.513439 -3.504211 -3.424205 -1.488965 2.866905 0.609872 3.838111 -1.866693 -14.127364 1.193410 -91.526503 -2.961618 -2.941161 -1.674001 -18.249507 0.546352 3.216359 0.736628 2.567968 6.616131 15.283246 3.899570 34.877661 57.034062 -29.191124 178.602960 39.818917 -178.620466 0.000000 0.000000 -0.000000 -0.088047 13.983385 -26.765270 -2.352443 -1.530949 16.448233 -0.000000 0.000000 0.000000 7.121822 2.323955 -4.696509 3.169787 -7.205905 1.121196 
-0.479647 -0.067973 -1.331903 -6.708149 22.009760 -0.205674 -0.000000 -0.000000 0.000000 -0.079216 -1.604276 1.053399 3.635269 1.576412 2.882166 0.000000 0.000000 0.000000 3.714737 0.375465 3.585117 -3.546845 -3.384707 -1.505129 2.872902 0.680979 3.911024 -1.881172 -14.005573 1.184636 -91.424569 -2.505172 -2.941375 -1.694174 -18.665784 0.568339 3.225829 0.803132 2.613754 6.594341 15.386927 3.889616 34.966364 57.187971 -28.914607 178.628721 39.990030 -178.613723 0.000000 0.000000 -0.000000 -0.070862 14.006244 -26.742960 -2.361120 -1.556325 16.428414 -0.000000 0.000000 0.000000 7.196205 2.330071 -4.696066 3.072726 -7.181199 1.224728 
-0.459187 -0.069319 -1.425572 -6.747725 22.100767 -0.273426 -0.000000 -0.000000 0.000000 -0.099767 -1.573296 1.060412 3.626525 1.626765 2.916555 0.000000 0.000000 0.000000 3.708559 0.420635 3.642601 -3.579382 -3.343416 -1.536982 2.873639 0.738348 3.976167 -1.858647 -13.940566 1.180229 -91.379942 -2.100554 -2.948916 -1.706949 -18.974738 0.593932 3.223590 0.856042 2.660160 6.588597 15.550818 3.897422 35.087125 57.255559 -28.648056 178.639557 39.980341 -178.609303 0.000000 0.000000 -0.000000 -0.034512 14.046374 -26.697902 -2.367698 -1.575565 16.407770 0.000000 0.000000 0.000000 7.254732 2.319338 -4.696346 2.990951 -7.174644 1.329751 
-0.449280 -0.070035 -1.518007 -6.789410 22.077919 -0.341614 -0.000000 -0.000000 0.000000 -0.100623 -1.535633 1.063593 3.609259 1.686781 2.966066 0.000000 0.000000 0.000000 3.687854 0.458069 3.686139 -3.602958 -3.309271 -1.564652 2.869708 0.786415 4.039073 -1.818640 -13.910943 1.180909 -91.360089 -1.785281 -2.989737 -1.713087 -19.077840 0.617339 3.210858 0.903545 2.706313 6.592370 15.739712 3.929110 35.220290 57.306511 -28.399775 178.628396 39.904301 -178.615028 0.000000 0.000000 -0.000000 0.012290 14.095968 -26.630767 -2.371047 -1.592252 16.377082 0.000000 0.000000 0.000000 7.299677 2.293891 -4.687800 2.930094 -7.179788 1.412830 
-0.449946 -0.070194 -1.608947 -6.825276 21.998996 -0.403331 -0.000000 0.000000 0.000000 -0.080341 -1.490212 1.053293 3.582711 1.742274 3.007806 0.000000 0.000000 0.000000 3.661125 0.492732 3.717536 -3.618777 -3.287647 -1.574932 2.861573 0.829235 4.099373 -1.789359 -13.879111 1.185982 -91.357361 -1.584730 -3.054459 -1.712420 -18.972270 0.635618 3.192049 0.946818 2.745338 6.595824 15.915099 3.967860 35.338576 57.343244 -28.209125 178.612348 39.776018 -178.621161 0.000000 0.000000 -0.000000 0.062761 14.148799 -26.544244 -2.377214 -1.610719 16.336526 0.000000 0.000000 0.000000 7.330258 2.256781 -4.685497 2.883365 -7.192457 1.499887 
-0.461944 -0.069951 -1.698690 -6.852952 21.907241 -0.455058 -0.000000 0.000000 0.000000 -0.052075 -1.445076 1.039891 3.551140 1.789584 3.035322 0.000000 0.000000 0.000000 3.631771 0.524411 3.738436 -3.629382 -3.274474 -1.565932 2.849853 0.864837 4.150141 -1.774899 -13.841360 1.196824 -91.359420 -1.472994 -3.129972 -1.706997 -18.710552 0.648578 3.168214 0.988353 2.772859 6.591298 16.067476 4.006203 35.408411 57.409953 -28.112159 178.590304 39.623318 -178.634841 0.000000 0.000000 -0.000000 0.108599 14.200674 -26.446087 -2.384166 -1.636077 16.278577 0.000000 0.000000 0.000000 7.350761 2.206284 -4.691075 2.819517 -7.232536 1.584245 
-0.486265 -0.069224 -1.787731 -6.874299 21.820991 -0.496623 -0.000000 0.000000 0.000000 -0.022140 -1.403513 1.024276 3.516230 1.827328 3.056759 0.000000 0.000000 0.000000 3.601246 0.551718 3.752168 -3.636134 -3.266607 -1.546986 2.837009 0.893751 4.189806 -1.770854 -13.800455 1.206794 -91.355436 -1.439452 -3.211029 -1.696787 -18.384178 0.656721 3.144360 1.024321 2.792292 6.583281 16.184376 4.050873 35.477124 57.468620 -28.037362 178.569837 39.475210 -178.652534 0.000000 0.000000 -0.000000 0.150936 14.247207 -26.346019 -2.393655 -1.668787 16.217510 0.000000 0.000000 0.000000 7.366674 2.145406 -4.705407 2.747740 -7.289141 1.666444 
-0.523738 -0.067930 -1.876139 -6.891773 21.751244 -0.530597 -0.000000 0.000000 0.000000 0.006269 -1.370463 1.013128 3.480120 1.858351 3.069562 0.000000 0.000000 0.000000 3.572448 0.573431 3.758201 -3.639210 -3.264286 -1.526146 2.824492 0.914786 4.216775 -1.773787 -13.768199 1.217042 -91.351671 -1.450416 -3.290354 -1.682217 -18.046040 0.660806 3.119664 1.055285 2.803937 6.568285 16.272939 4.087870 35.514480 57.535631 -28.024849 178.548654 39.367955 -178.676150 0.000000 0.000000 -0.000000 0.190979 14.286730 -26.247553 -2.404659 -1.711880 16.152551 0.000000 0.000000 0.000000 7.381065 2.076577 -4.724686 2.666919 -7.363539 1.753951 
-0.574273 -0.066193 -1.963854 -6.903555 21.697505 -0.558174 -0.000000 0.000000 0.000000 0.037139 -1.338023 0.995462 3.448161 1.881547 3.077874 0.000000 0.000000 0.000000 3.548498 0.592901 3.759886 -3.640903 -3.258802 -1.504198 2.813659 0.931827 4.239199 -1.783755 -13.729453 1.229055 -91.355171 -1.474308 -3.361943 -1.669468 -17.722031 0.663151 3.094538 1.083746 2.811379 6.551458 16.349332 4.125947 35.540937 57.591017 -28.009353 178.530464 39.281590 -178.700201 0.000000 0.000000 -0.000000 0.229879 14.320351 -26.156254 -2.415243 -1.762760 16.091951 0.000000 0.000000 0.000000 7.391169 2.016012 -4.746079 2.556707 -7.466742 1.877560 
